<svg width="283" height="75" viewBox="0 0 283 75" fill="none" xmlns="http://www.w3.org/2000/svg">
<path d="M14.2877 39.8987C24.1909 26.1268 22.4305 19.0978 4 7.17382C22.8785 2.97858 33.297 1.9848 51.6618 2.00017C71.5437 2.81638 76.0212 13.7456 73.7998 18.4561C71.5784 23.1666 64.4237 22.5077 59.0845 27.9307C53.7454 33.3537 45.4993 20.1391 31.6956 29.8007C17.8919 39.4623 72.8882 52.8639 44.3693 55.9182C38.379 51.6796 30.0447 42.2673 14.2877 39.8987Z" stroke="#FAC402" stroke-width="3"/>
<path d="M53.596 45.4795C46.7575 40.2587 44.2301 37.3234 46.4631 32.0445C62.0604 32.2365 69.8493 33.5801 82.1272 38.0671C89.1731 46.3066 82.8834 49.9331 67.3233 55.9804C63.7793 55.0024 56.8354 53.344 57.768 53.2522C64.8538 52.5549 62.0766 47.2067 53.596 45.4795Z" stroke="#FAC402" stroke-width="3"/>
<path d="M90.5987 25.5619L77.3159 30.0499C85.3584 33.5453 90.5987 34.2262 93.8543 41.0828C90.8412 49.764 83.9573 55.3571 77.3159 57.2894L95.1565 64.4577C99.6143 58.22 101.142 54.7451 100.496 48.6251L104.923 47.0044C111.942 51.3933 121.201 57.2894 110.914 64.4577L125.629 70.317C128.467 64.6874 133.963 54.9831 107.788 42.4541C125.629 33.0418 123.22 24.1429 121.201 19.7026L107.788 21.2609C118.758 30.0499 100.496 38.5272 100.496 38.5272C100.496 38.5272 95.3733 27.454 90.5987 25.5619Z" stroke="#FAC402" stroke-width="3"/>
<path d="M122.243 39.1035V43.5291C135.295 51.4204 141.526 67.2599 138.521 69.4597C133.952 72.8035 169.861 58.6364 165.086 53.9387C164.828 53.6851 160.659 52.4427 158.184 51.5701C157.449 54.239 142.997 58.6803 146.334 59.1124C150.551 59.6584 141.386 46.6458 134.093 43.5291C126.8 40.4125 152.049 44.4548 158.184 46.6458C160.001 48.5315 170.028 40.9937 168.081 39.1035C166.134 37.2133 157.881 25.642 153.757 25.6395C147.936 23.1375 144.606 22.6331 138.521 23.7695C133.769 32.9177 130.089 36.0475 122.243 39.1035ZM150.241 29.4419C146.531 27.5228 144.826 27.5404 142.427 29.4419C141.672 34.7609 139.172 36.4585 134.093 39.1035C143.498 36.6574 147.745 37.1733 153.757 40.9735C156.984 39.81 157.744 38.9326 158.184 37.1712L150.241 29.4419Z" stroke="#FAC402" stroke-width="3"/>
<path d="M172.275 27.6812C181.297 23.6384 185.451 20.8214 188.423 13.0953L200.273 8.85663C200.273 8.85663 213.697 35.4259 206.654 52.4274C211.525 52.0951 213.464 52.6875 216.551 54.1104V60.6554C199.339 61.4009 190.929 64.5889 176.703 72C174.969 66.5493 162.752 65.4625 163.42 66.3277C164.088 67.1929 168.766 56.7495 185.037 52.4274C194.581 36.9273 195.241 32.0093 190.897 27.6812L176.703 36.1585C177.135 33.2116 177.021 31.4993 172.275 27.6812Z" stroke="#FAC402" stroke-width="3"/>
<path d="M271.361 13.843C255.604 15.2143 207.232 5.504 218.1 10.103C228.968 14.702 225.632 45.389 218.1 45.6952C226.622 49.5329 228.932 52.503 227.997 59.3461C244.225 59.3106 260.032 66.3274 260.032 68.2597C260.032 70.1921 282.905 56.2436 280.607 53.9231C273.858 47.1065 287.118 12.4717 271.361 13.843Z" stroke="#FAC402" stroke-width="3"/>
</svg>
