<svg width="450" height="450" viewBox="0 0 450 450" fill="none" xmlns="http://www.w3.org/2000/svg">
<path d="M142.773 42.0516C138.68 82.6213 76.5136 139.914 37 139.914C78.6486 139.914 138.909 199.206 142.774 241.661C146.844 202.105 200.988 146.449 245.362 140.445C202.747 139.711 146.627 81.0507 142.773 42.0516Z" fill="black"/>
<path d="M248.088 188.797C243.616 233.123 175.693 295.721 132.521 295.721C178.026 295.721 243.866 360.503 248.089 406.889C252.536 363.67 311.693 302.86 360.176 296.301C313.615 295.499 252.299 231.407 248.088 188.797Z" fill="black"/>
<path d="M341.078 115.219C338.425 141.514 298.132 178.648 272.521 178.648C299.515 178.648 338.573 217.078 341.078 244.595C343.716 218.957 378.81 182.883 407.57 178.992C379.949 178.516 343.576 140.496 341.078 115.219Z" fill="black"/>
</svg>
