<svg width="922" height="922" viewBox="0 0 922 922" fill="none" xmlns="http://www.w3.org/2000/svg">
<rect width="922" height="922" rx="461" fill="#0318D3" fill-opacity="0.67"/>
<path d="M173.5 515.001C211.524 404.532 204.765 348.149 134 252.501C206.485 218.85 246.487 210.878 317 211.001C393.338 217.549 410.529 305.216 402 343.001C393.471 380.787 366 375.501 345.5 419.001C325 462.501 293.339 356.501 240.339 434.001C187.339 511.501 398.5 619.001 289 643.501C266 609.501 234 534.001 173.5 515.001Z" stroke="#FAC402" stroke-width="12"/>
<path d="M324.426 559.768C298.169 517.89 288.465 494.344 297.039 452C356.926 453.54 386.832 464.318 433.973 500.31C461.026 566.403 436.876 595.492 377.133 644C363.525 636.155 336.864 622.852 340.445 622.116C367.651 616.523 356.988 573.623 324.426 559.768Z" stroke="#FAC402" stroke-width="12"/>
<path d="M466.5 400L415.5 436C446.379 464.039 466.5 469.5 479 524.5C467.431 594.135 441 639 415.5 654.5L484 712C501.116 661.965 506.982 634.091 504.5 585L521.5 572C548.448 607.205 584 654.5 544.5 712L601 759C611.898 713.842 633 636 532.5 535.5C601 460 591.753 388.618 584 353L532.5 365.5C574.619 436 504.5 504 504.5 504C504.5 504 484.832 415.177 466.5 400Z" stroke="#FAC402" stroke-width="12"/>
<path d="M588 508.623V544.123C638.114 607.422 662.04 734.477 650.5 752.123C632.958 778.945 770.833 665.305 752.5 627.623C751.51 625.588 735.5 615.623 726 608.623C723.177 630.032 667.687 665.657 680.5 669.123C696.693 673.503 661.5 569.123 633.5 544.123C605.5 519.123 702.445 551.548 726 569.123C732.975 584.249 771.476 523.785 764 508.623C756.524 493.461 724.836 400.643 709 400.623C686.649 380.553 673.866 376.507 650.5 385.623C632.255 459.004 618.126 484.109 588 508.623ZM695.5 431.123C681.255 415.73 674.709 415.87 665.5 431.123C662.6 473.79 653 487.406 633.5 508.623C669.609 489.002 685.918 493.14 709 523.623C721.393 514.29 724.311 507.252 726 493.123L695.5 431.123Z" stroke="#FAC402" stroke-width="12"/>
<path d="M628.865 220.432C641.933 207.883 647.95 199.139 652.256 175.157L669.421 162C669.421 162 688.865 244.472 678.664 297.246C685.719 296.214 688.529 298.053 693 302.47V322.786C668.068 325.1 655.886 334.996 635.279 358C632.767 341.081 615.071 337.707 616.038 340.393C617.006 343.079 623.782 310.662 647.351 297.246C661.175 249.133 662.132 233.867 655.84 220.432L635.279 246.746C635.905 237.599 635.74 232.284 628.865 220.432Z" stroke="#FAC402" stroke-width="12"/>
<path d="M773.235 177.481C750.179 181.739 679.403 151.591 695.305 165.87C711.206 180.148 706.325 275.424 695.305 276.374C707.774 288.289 711.153 297.511 709.785 318.757C733.53 318.647 756.658 340.432 756.658 346.432C756.658 352.431 790.124 309.125 786.763 301.92C776.888 280.756 796.29 173.224 773.235 177.481Z" stroke="#FAC402" stroke-width="12"/>
</svg>
