<svg width="117" height="32" viewBox="0 0 117 32" fill="none" xmlns="http://www.w3.org/2000/svg">
<path d="M14.8571 16C14.8571 17.578 13.578 18.8571 12 18.8571C10.422 18.8571 9.14286 17.578 9.14286 16C9.14286 14.422 10.422 13.1429 12 13.1429C13.578 13.1429 14.8571 14.422 14.8571 16Z" fill="#212121"/>
<path fill-rule="evenodd" clip-rule="evenodd" d="M12 28C18.0454 28 23.0467 23.5296 23.8785 17.7143H16.8502C16.1442 19.7118 14.2392 21.1429 12 21.1429C9.76077 21.1429 7.85579 19.7118 7.14978 17.7143H0.121524C0.953346 23.5296 5.95462 28 12 28ZM7.14978 14.2857H0.121524C0.953346 8.47035 5.95462 4 12 4C18.0454 4 23.0467 8.47035 23.8785 14.2857H16.8502C16.1442 12.2882 14.2392 10.8571 12 10.8571C9.76077 10.8571 7.85579 12.2882 7.14978 14.2857ZM14.8571 16C14.8571 17.578 13.578 18.8571 12 18.8571C10.422 18.8571 9.14286 17.578 9.14286 16C9.14286 14.422 10.422 13.1429 12 13.1429C13.578 13.1429 14.8571 14.422 14.8571 16Z" fill="#212121"/>
<path d="M46.328 12.576C46.328 13.552 46.104 14.448 45.656 15.264C45.208 16.064 44.52 16.712 43.592 17.208C42.664 17.704 41.512 17.952 40.136 17.952H37.592V24H33.488V7.152H40.136C41.48 7.152 42.616 7.384 43.544 7.848C44.472 8.312 45.168 8.952 45.632 9.768C46.096 10.584 46.328 11.52 46.328 12.576ZM39.824 14.688C40.608 14.688 41.192 14.504 41.576 14.136C41.96 13.768 42.152 13.248 42.152 12.576C42.152 11.904 41.96 11.384 41.576 11.016C41.192 10.648 40.608 10.464 39.824 10.464H37.592V14.688H39.824ZM54.5606 24.192C53.2486 24.192 52.0646 23.912 51.0086 23.352C49.9686 22.792 49.1446 21.992 48.5366 20.952C47.9446 19.912 47.6486 18.696 47.6486 17.304C47.6486 15.928 47.9526 14.72 48.5606 13.68C49.1686 12.624 50.0006 11.816 51.0566 11.256C52.1126 10.696 53.2966 10.416 54.6086 10.416C55.9206 10.416 57.1046 10.696 58.1606 11.256C59.2166 11.816 60.0486 12.624 60.6566 13.68C61.2646 14.72 61.5686 15.928 61.5686 17.304C61.5686 18.68 61.2566 19.896 60.6326 20.952C60.0246 21.992 59.1846 22.792 58.1126 23.352C57.0566 23.912 55.8726 24.192 54.5606 24.192ZM54.5606 20.64C55.3446 20.64 56.0086 20.352 56.5526 19.776C57.1126 19.2 57.3926 18.376 57.3926 17.304C57.3926 16.232 57.1206 15.408 56.5766 14.832C56.0486 14.256 55.3926 13.968 54.6086 13.968C53.8086 13.968 53.1446 14.256 52.6166 14.832C52.0886 15.392 51.8246 16.216 51.8246 17.304C51.8246 18.376 52.0806 19.2 52.5926 19.776C53.1206 20.352 53.7766 20.64 54.5606 20.64ZM71.9298 24L67.8498 18.384V24H63.7458V6.24H67.8498V16.056L71.9058 10.608H76.9698L71.4018 17.328L77.0178 24H71.9298ZM91.2057 17.088C91.2057 17.472 91.1818 17.872 91.1338 18.288H81.8458C81.9098 19.12 82.1738 19.76 82.6378 20.208C83.1178 20.64 83.7018 20.856 84.3898 20.856C85.4138 20.856 86.1258 20.424 86.5258 19.56H90.8938C90.6698 20.44 90.2618 21.232 89.6698 21.936C89.0938 22.64 88.3658 23.192 87.4858 23.592C86.6058 23.992 85.6218 24.192 84.5338 24.192C83.2218 24.192 82.0538 23.912 81.0298 23.352C80.0058 22.792 79.2058 21.992 78.6298 20.952C78.0538 19.912 77.7658 18.696 77.7658 17.304C77.7658 15.912 78.0458 14.696 78.6058 13.656C79.1818 12.616 79.9818 11.816 81.0058 11.256C82.0298 10.696 83.2058 10.416 84.5338 10.416C85.8298 10.416 86.9818 10.688 87.9898 11.232C88.9978 11.776 89.7818 12.552 90.3418 13.56C90.9178 14.568 91.2057 15.744 91.2057 17.088ZM87.0058 16.008C87.0058 15.304 86.7658 14.744 86.2858 14.328C85.8058 13.912 85.2058 13.704 84.4858 13.704C83.7978 13.704 83.2138 13.904 82.7338 14.304C82.2698 14.704 81.9818 15.272 81.8698 16.008H87.0058ZM87.2938 7.176L81.5098 9.6V6.768L87.2938 3.984V7.176ZM92.5308 10.296V6.48H99.1788V24H94.9068V10.296H92.5308ZM101.986 15C101.986 12.248 102.514 10.08 103.57 8.496C104.642 6.912 106.362 6.12 108.73 6.12C111.098 6.12 112.81 6.912 113.866 8.496C114.938 10.08 115.474 12.248 115.474 15C115.474 17.784 114.938 19.968 113.866 21.552C112.81 23.136 111.098 23.928 108.73 23.928C106.362 23.928 104.642 23.136 103.57 21.552C102.514 19.968 101.986 17.784 101.986 15ZM111.442 15C111.442 13.384 111.266 12.144 110.914 11.28C110.562 10.4 109.834 9.96 108.73 9.96C107.626 9.96 106.898 10.4 106.546 11.28C106.194 12.144 106.018 13.384 106.018 15C106.018 16.088 106.082 16.992 106.21 17.712C106.338 18.416 106.594 18.992 106.978 19.44C107.378 19.872 107.962 20.088 108.73 20.088C109.498 20.088 110.074 19.872 110.458 19.44C110.858 18.992 111.122 18.416 111.25 17.712C111.378 16.992 111.442 16.088 111.442 15Z" fill="#212121"/>
</svg>
